<?xml version="1.0" encoding="utf-8"?>
<svg xmlns="http://www.w3.org/2000/svg" width="720" height="1040" viewBox="0 0 720 1040" role="img" aria-label="Neon syringe on skateboard">
  <defs>
    <!-- Soft big glow -->
    <filter id="glow-big" x="-200%" y="-200%" width="500%" height="500%">
      <feGaussianBlur in="SourceGraphic" stdDeviation="22" result="blur1"/>
      <feMerge>
        <feMergeNode in="blur1"/>
        <feMergeNode in="SourceGraphic"/>
      </feMerge>
    </filter>

    <!-- Medium glow -->
    <filter id="glow-med" x="-150%" y="-150%" width="400%" height="400%">
      <feGaussianBlur in="SourceGraphic" stdDeviation="12" result="blur2"/>
      <feMerge>
        <feMergeNode in="blur2"/>
        <feMergeNode in="SourceGraphic"/>
      </feMerge>
    </filter>

    <!-- Tight glow for thin lines -->
    <filter id="glow-tight" x="-100%" y="-100%" width="300%" height="300%">
      <feGaussianBlur in="SourceGraphic" stdDeviation="6" result="blur3"/>
      <feMerge>
        <feMergeNode in="blur3"/>
        <feMergeNode in="SourceGraphic"/>
      </feMerge>
    </filter>

    <!-- gradients -->
    <linearGradient id="cyanGrad" x1="0" y1="0" x2="1" y2="1">
      <stop offset="0" stop-color="#00f3ff"/>
      <stop offset="1" stop-color="#00d8ff"/>
    </linearGradient>

    <linearGradient id="pinkGrad" x1="0" y1="0" x2="1" y2="0">
      <stop offset="0" stop-color="#ff2bd6"/>
      <stop offset="1" stop-color="#ff4a9a"/>
    </linearGradient>

    <linearGradient id="wheelGrad" x1="0" y1="0" x2="1" y2="1">
      <stop offset="0" stop-color="#ffd63a"/>
      <stop offset="1" stop-color="#ffb300"/>
    </linearGradient>

    <!-- simple vignette -->
    <radialGradient id="vign" cx="50%" cy="20%" r="80%">
      <stop offset="0%" stop-color="#000000" stop-opacity="0"/>
      <stop offset="100%" stop-color="#000000" stop-opacity="0.6"/>
    </radialGradient>

    <style><![CDATA[
      .neon { fill: none; stroke-linecap: round; stroke-linejoin: round; }
    ]]></style>
  </defs>

  <!-- background -->
  <rect width="100%" height="100%" fill="#05060a"/>

  <!-- faint center glow behind composition -->
  <circle cx="360" cy="240" r="220" fill="#07121a" opacity="0.12"/>

  <!-- motion arcs (big curved strokes, mimicking your bitmap) -->
  <g filter="url(#glow-big)" opacity="0.9">
    <path d="M80 720 C260 560 460 520 640 500" stroke="#ff2bd6" stroke-width="8" class="neon" />
    <path d="M90 760 C280 610 470 570 660 550" stroke="#12d6ff" stroke-width="10" class="neon" />
    <path d="M80 800 C260 650 460 610 640 590" stroke="#052b33" stroke-width="6" class="neon" opacity="0.25"/>
  </g>

  <!-- small cyan splatter / accent near wheel -->
  <g filter="url(#glow-med)" opacity="0.9">
    <ellipse cx="150" cy="700" rx="18" ry="10" fill="#00f3ff" opacity="0.85"/>
  </g>

  <!-- skateboard (magenta outline + inner stroke) -->
  <g transform="translate(260,420) rotate(-22)">
    <!-- magenta outer -->
    <path d="M0 0 C72 -20 200 -20 272 0 C300 14 300 42 272 58 C200 92 72 92 0 58 C-28 42 -28 14 0 0 Z"
          stroke="url(#pinkGrad)" stroke-width="12" class="neon" filter="url(#glow-med)"/>
    <!-- inner thin highlight -->
    <path d="M12 10 C82 -6 190 -6 262 10" stroke="#ff8bd3" stroke-width="4" fill="none" class="neon" filter="url(#glow-tight)"/>
    <!-- small deck marks -->
    <g stroke="#ff8bd3" stroke-width="3" filter="url(#glow-tight)" opacity="0.9">
      <path d="M70 22 L84 18"/>
      <path d="M115 30 L130 26"/>
    </g>

    <!-- wheels: front -->
    <g transform="translate(210,38)">
      <circle cx="0" cy="0" r="18" fill="url(#wheelGrad)" filter="url(#glow-med)"/>
      <circle cx="0" cy="0" r="7" fill="#1f1f1f" stroke="#ffffff33" stroke-width="1.8"/>
    </g>

    <!-- wheels: back -->
    <g transform="translate(70,64)">
      <circle cx="0" cy="0" r="18" fill="url(#wheelGrad)" filter="url(#glow-med)"/>
      <circle cx="0" cy="0" r="7" fill="#1f1f1f" stroke="#ffffff33" stroke-width="1.8"/>
    </g>

    <!-- tiny streaks near wheels -->
    <g filter="url(#glow-tight)" opacity="0.7">
      <path d="M220 30 L248 12" stroke="#00f3ff" stroke-width="3" class="neon"/>
      <path d="M58 66 L88 46" stroke="#00f3ff" stroke-width="3" class="neon"/>
    </g>
  </g>

  <!-- syringe (tilted, view from slightly above/back) -->
  <g transform="translate(260,360) rotate(-8)">
    <!-- plunger round back (cyan) -->
    <g filter="url(#glow-med)">
      <ellipse cx="110" cy="240" rx="34" ry="14" stroke="url(#cyanGrad)" stroke-width="10" fill="none" class="neon" />
    </g>

    <!-- flange -->
    <g transform="translate(60,200)" filter="url(#glow-tight)">
      <ellipse cx="50" cy="40" rx="46" ry="18" stroke="url(#cyanGrad)" stroke-width="10" fill="none" class="neon"/>
      <rect x="-16" y="24" width="128" height="12" rx="6" stroke="url(#cyanGrad)" stroke-width="10" fill="none" class="neon"/>
    </g>

    <!-- barrel body -->
    <path d="M40 16 L40 196 C40 208 200 208 200 196 L200 16 C200 6 192 0 168 0 L72 0 C48 0 40 6 40 16 Z"
          stroke="url(#cyanGrad)" stroke-width="12" class="neon" filter="url(#glow-med)" fill="none"/>

    <!-- inner slight fill -->
    <rect x="52" y="22" width="136" height="160" rx="6" fill="rgba(0,243,255,0.03)" />

    <!-- measure ticks -->
    <g stroke="#8ffaff" stroke-width="4" stroke-linecap="round" filter="url(#glow-tight)">
      <path d="M68 36 L86 36"/>
      <path d="M68 68 L94 68"/>
      <path d="M68 100 L102 100"/>
      <path d="M68 132 L94 132"/>
      <path d="M68 164 L86 164"/>
    </g>

    <!-- plunger rod -->
    <rect x="110" y="-4" width="10" height="220" rx="5" stroke="url(#cyanGrad)" stroke-width="6" fill="none" filter="url(#glow-tight)"/>

    <!-- needle -->
    <path d="M200 0 L230 -36" stroke="#00ffd2" stroke-width="4" stroke-linecap="round" filter="url(#glow-tight)"/>
    <path d="M230 -36 L258 -70" stroke="#00ffd2" stroke-width="3" stroke-linecap="round" filter="url(#glow-tight)"/>

    <!-- small magenta scratches to echo deck -->
    <g stroke="#ff77d9" stroke-width="3" filter="url(#glow-tight)" opacity="0.9">
      <path d="M66 164 L86 154"/>
      <path d="M150 142 L170 132"/>
    </g>
  </g>

  <!-- extra motion stroke under deck to match reference -->
  <g filter="url(#glow-tight)" opacity="0.95">
    <path d="M150 760 C320 610 500 580 630 560" stroke="#ff2bd6" stroke-width="6" fill="none" class="neon"/>
  </g>

  <!-- vignette finish -->
  <rect x="0" y="0" width="100%" height="100%" fill="url(#vign)" />

</svg>
