<svg xmlns="http://www.w3.org/2000/svg" viewBox="0 0 100 100">
  <defs>
    <filter id="neon" x="-50%" y="-50%" width="200%" height="200%">
      <feGaussianBlur stdDeviation="3" result="glow"/>
      <feMerge>
        <feMergeNode in="glow"/>
        <feMergeNode in="SourceGraphic"/>
      </feMerge>
    </filter>
    <radialGradient id="bg" cx="50%" cy="60%" r="65%">
      <stop offset="0%" stop-color="#232b3a"/>
      <stop offset="100%" stop-color="#181921"/>
    </radialGradient>
    <linearGradient id="syringe-sheen" x1="0%" y1="0%" x2="100%" y2="0%">
      <stop offset="0%" stop-color="rgba(255,255,255,0.6)"/>
      <stop offset="50%" stop-color="rgba(255,255,255,0.1)"/>
      <stop offset="100%" stop-color="rgba(255,255,255,0.6)"/>
    </linearGradient>
  </defs>
  
  <!-- Pozadí a tunel -->
  <rect width="100" height="100" rx="24" fill="url(#bg)"/>
  <ellipse cx="50" cy="80" rx="35" ry="14" fill="#2f3553" opacity=".38" filter="url(#neon)"/>
  <ellipse cx="50" cy="36" rx="25" ry="9" fill="none" stroke="#00cff7" stroke-width="2" opacity=".36"/>
  <path d="M42 38 Q50 50 50 80" stroke="#00cff7" stroke-width="1.2" opacity=".18" fill="none"/>
  <path d="M58 38 Q50 50 50 80" stroke="#00cff7" stroke-width="1.2" opacity=".18" fill="none"/>
  
  <!-- Realističtější skateboard -->
  <g transform="translate(0, 2)">
    <path d="M38 70 L62 70 C64 70, 64 72, 62 74 L38 74 C36 74, 36 72, 38 70 Z" fill="#232b3a" stroke="#0ad6ff" stroke-width="1.2"/>
    <rect x="42" y="73" width="16" height="2" fill="#181921" /> 
    <ellipse cx="43" cy="76" rx="2.5" ry="1.5" fill="#ff007f"/>
    <ellipse cx="57" cy="76" rx="2.5" ry="1.5" fill="#ff007f"/>
    <ellipse cx="52" cy="85" rx="14" ry="3" fill="#000" opacity="0.2"/>
  </g>

  <!-- Realističtější stříkačka -->
  <g transform="rotate(10 50 50) translate(0, -5)" filter="url(#neon)">
    <!-- Tělo stříkačky -->
    <rect x="44" y="50" width="12" height="22" rx="4" fill="#0ad6ff" stroke="#fff" stroke-width="1.5"/>
    <!-- Tekutina uvnitř -->
    <rect x="45.5" y="58" width="9" height="12" rx="2" fill="#ff007f" opacity=".8"/>
    <!-- Odlesk na skle -->
    <rect x="45" y="51" width="10" height="20" rx="3" fill="url(#syringe-sheen)"/>
    <!-- Píst -->
    <g>
      <rect x="47" y="45" width="6" height="15" rx="1.5" fill="#eaf2fb" opacity="0.9"/>
      <rect x="45" y="42" width="10" height="4" rx="2" fill="#c0d4e3"/>
    </g>
    <!-- Jehla -->
    <path d="M50 50 L50 28 L49 25 L51 25 Z" fill="#eaf2fb"/>
  </g>
</svg>

