<svg xmlns="http://www.w3.org/2000/svg" viewBox="0 0 100 100">
  <defs>
    <!-- Filtr pro neonový glow efekt -->
    <filter id="neon-glow" x="-50%" y="-50%" width="200%" height="200%">
      <feGaussianBlur stdDeviation="3.5" result="coloredBlur"/>
      <feMerge>
        <feMergeNode in="coloredBlur"/>
        <feMergeNode in="SourceGraphic"/>
      </feMerge>
    </filter>
  </defs>

  <!-- Pozadí ikony, navrženo pro maskování (např. do kruhu na Androidu) -->
  <rect width="100" height="100" rx="22" fill="#121212"/>

  <!-- Moderní, abstraktní tunel s perspektivou -->
  <g filter="url(#neon-glow)" stroke-linecap="round" stroke-linejoin="round" fill="none" stroke-width="4">
    <!-- Vnější oblouk tunelu -->
    <path d="M 25 30 Q 50 20, 75 30 L 80 70 Q 50 80, 20 70 Z" stroke="#FF007F"/>
    <!-- Vnitřní oblouk tunelu pro hloubku -->
    <path d="M 38 40 Q 50 35, 62 40 L 65 60 Q 50 65, 35 60 Z" stroke="#FF007F" opacity="0.7"/>
  </g>
  
  <!-- Injekční stříkačka letící tunelem -->
  <g transform="rotate(-15 50 50) translate(-2, 0)" filter="url(#neon-glow)">
    <!-- Jehla -->
    <path d="M28 50 H42" stroke="#EAEAEA" stroke-width="2" stroke-linecap="round"/>
    <!-- Konec stříkačky (uchycení jehly) -->
    <path d="M42 47 L46 47 L46 53 L42 53 Z" fill="#00BFFF"/>
    <!-- Tělo stříkačky (průhledné) -->
    <rect x="46" y="46" width="25" height="8" rx="2" fill="rgba(0, 191, 255, 0.3)" stroke="#00BFFF" stroke-width="1.5"/>
    <!-- Píst uvnitř -->
    <rect x="48" y="48" width="15" height="4" rx="1" fill="#00BFFF"/>
    <!-- Konec pístu -->
    <rect x="71" y="45" width="4" height="10" rx="1" fill="#00BFFF"/>
    <rect x="75" y="47.5" width="6" height="5" rx="1" fill="#00BFFF"/>
  </g>
</svg>


