<svg xmlns="http://www.w3.org/2000/svg" viewBox="0 0 100 100">
  <defs>
    <filter id="neon" x="-50%" y="-50%" width="200%" height="200%">
      <feGaussianBlur stdDeviation="3" result="glow"/>
      <feMerge>
        <feMergeNode in="glow"/>
        <feMergeNode in="SourceGraphic"/>
      </feMerge>
    </filter>
    <radialGradient id="bg" cx="50%" cy="60%" r="65%">
      <stop offset="0%" stop-color="#232b3a"/>
      <stop offset="100%" stop-color="#181921"/>
    </radialGradient>
    <linearGradient id="syringe-sheen" x1="0%" y1="0%" x2="100%" y2="0%">
      <stop offset="0%" stop-color="rgba(255,255,255,0.6)"/>
      <stop offset="50%" stop-color="rgba(255,255,255,0.1)"/>
      <stop offset="100%" stop-color="rgba(255,255,255,0.6)"/>
    </linearGradient>
  </defs>
  
  <!-- Pozadí -->
  <rect width="100" height="100" rx="24" fill="url(#bg)"/>

  <!-- Stín pod objekty -->
  <ellipse cx="50" cy="72" rx="25" ry="4" fill="#000" opacity="0.2"/>

  <!-- Skupina pro skateboard a stříkačku -->
  <g transform="translate(0, -10)" filter="url(#neon)">
    <!-- Skateboard -->
    <g>
      <path d="M32 68 L68 68 C70 68, 70 70, 68 72 L32 72 C30 72, 30 70, 32 68 Z" fill="#232b3a" stroke="#0ad6ff" stroke-width="1.5"/>
      <rect x="38" y="71" width="24" height="2.5" fill="#181921"/> 
      <ellipse cx="41" cy="74" rx="3" ry="1.8" fill="#ff007f"/>
      <ellipse cx="59" cy="74" rx="3" ry="1.8" fill="#ff007f"/>
    </g>

    <!-- Stříkačka -->
    <g transform="translate(0, -1)">
        <!-- Tělo stříkačky -->
        <rect x="25" y="60" width="50" height="10" rx="3" fill="#0ad6ff" stroke="#fff" stroke-width="1.5"/>
        <!-- Tekutina uvnitř -->
        <rect x="27" y="62" width="30" height="6" rx="1.5" fill="#ff007f" opacity=".8"/>
        <!-- Odlesk na skle -->
        <rect x="26" y="61" width="48" height="8" rx="2" fill="url(#syringe-sheen)"/>
        <!-- Píst -->
        <g>
          <rect x="55" y="62.5" width="22" height="5" rx="1.5" fill="#eaf2fb" opacity="0.9"/>
          <!-- Úchyt pístu (kolečko na konci) -->
          <rect x="77" y="60.5" width="5" height="9" rx="2" fill="#c0d4e3"/>
        </g>
        <!-- Jehla -->
        <path d="M15 65 L25 65 L23 62 L25 65 L23 68 Z" fill="#eaf2fb"/>
    </g>
  </g>
</svg>

