<?xml version="1.0" encoding="UTF-8"?>
<svg xmlns="http://www.w3.org/2000/svg"
     width="1024" height="1536" viewBox="0 0 1024 1536" version="1.1" role="img" aria-label="Neon syringe on skateboard">
  <defs>
    <!-- Glow filters -->
    <filter id="glow-soft" x="-80%" y="-80%" width="260%" height="260%">
      <feGaussianBlur stdDeviation="10" result="b"/>
      <feMerge>
        <feMergeNode in="b"/>
        <feMergeNode in="SourceGraphic"/>
      </feMerge>
    </filter>
    <filter id="glow-strong" x="-120%" y="-120%" width="340%" height="340%">
      <feGaussianBlur stdDeviation="18" result="b2"/>
      <feMerge>
        <feMergeNode in="b2"/>
        <feMergeNode in="SourceGraphic"/>
      </feMerge>
    </filter>

    <!-- Gradients used for neon strokes -->
    <linearGradient id="gCyan" x1="0%" y1="0%" x2="100%" y2="100%">
      <stop offset="0" stop-color="#00f6ff"/>
      <stop offset="1" stop-color="#00a4ff"/>
    </linearGradient>
    <linearGradient id="gPink" x1="0%" y1="0%" x2="100%" y2="0%">
      <stop offset="0" stop-color="#ff2bd6"/>
      <stop offset="1" stop-color="#ff4a9a"/>
    </linearGradient>
    <linearGradient id="gNeedle" x1="0%" y1="0%" x2="100%" y2="0%">
      <stop offset="0" stop-color="#33ffdd"/>
      <stop offset="1" stop-color="#00ffd2"/>
    </linearGradient>
    <linearGradient id="gWheel" x1="0%" y1="0%" x2="1" y2="1">
      <stop offset="0" stop-color="#ffd63a"/>
      <stop offset="1" stop-color="#ffb300"/>
    </linearGradient>

    <!-- subtle vignette -->
    <radialGradient id="v" cx="50%" cy="30%" r="75%">
      <stop offset="0%" stop-color="#000000" stop-opacity="0"/>
      <stop offset="100%" stop-color="#000000" stop-opacity="0.7"/>
    </radialGradient>

    <style><![CDATA[
      .stroke-neon { fill: none; stroke-linecap: round; stroke-linejoin: round; }
    ]]></style>
  </defs>

  <!-- background -->
  <rect width="100%" height="100%" fill="#05050a"/>

  <!-- subtle grain overlay (simulated with low opacity noise-like rectangles) -->
  <g opacity="0.03">
    <rect width="100%" height="100%" fill="#071021"/>
  </g>

  <!-- motion streaks (long, faint) -->
  <g stroke="#12d6ff" stroke-width="6" stroke-linecap="round" opacity="0.45" filter="url(#glow-soft)">
    <path d="M180 1180 C340 1050 560 980 740 940"/>
    <path d="M220 1220 C420 1080 640 1000 820 960" opacity="0.32"/>
  </g>

  <!-- skateboard group: positioned bottom-left -> rotated to match image -->
  <g transform="translate(160,980) rotate(-30)">
    <!-- deck outline (bright magenta neon) -->
    <path class="stroke-neon" d="M180 0
                                C260 -22 400 -22 480 0
                                C520 18 520 54 480 72
                                C400 94 260 94 180 72
                                C140 54 140 18 180 0 Z"
          stroke="url(#gPink)" stroke-width="12" filter="url(#glow-soft)"/>
    <!-- deck highlight -->
    <path d="M190 16 C265 -4 405 -4 480 16" fill="none" stroke="#ff8bd3" stroke-width="4" stroke-linecap="round" opacity="0.95" filter="url(#glow-soft)"/>

    <!-- underside cyan accent -->
    <path d="M200 40 C280 20 400 20 480 40" fill="none" stroke="#12d6ff" stroke-width="6" stroke-linecap="round" opacity="0.65" filter="url(#glow-soft)"/>

    <!-- wheels: front -->
    <g transform="translate(420,36)">
      <circle cx="0" cy="0" r="26" fill="url(#gWheel)" filter="url(#glow-strong)"/>
      <circle cx="0" cy="0" r="10" fill="#1f1f1f" stroke="#ffffff33" stroke-width="2"/>
    </g>
    <!-- wheels: back -->
    <g transform="translate(220,72)">
      <circle cx="0" cy="0" r="26" fill="url(#gWheel)" filter="url(#glow-strong)"/>
      <circle cx="0" cy="0" r="10" fill="#1f1f1f" stroke="#ffffff33" stroke-width="2"/>
    </g>

    <!-- tiny speed streaks by wheels -->
    <g stroke="#00f0ff" stroke-width="3" stroke-linecap="round" filter="url(#glow-soft)" opacity="0.6">
      <path d="M452 20 L490 -8"/>
      <path d="M210 70 L250 38"/>
    </g>
  </g>

  <!-- syringe group (slightly above and rotated) -->
  <g transform="translate(380,640) rotate(20) scale(1.04)">
    <!-- plunger back ellipse -->
    <ellipse cx="8" cy="360" rx="28" ry="12" fill="none" stroke="url(#gCyan)" stroke-width="10" filter="url(#glow-soft)"/>

    <!-- plunger rod -->
    <rect x="56" y="-6" width="18" height="240" rx="6" fill="none" stroke="url(#gCyan)" stroke-width="6" filter="url(#glow-soft)"/>

    <!-- barrel outer -->
    <path d="M0 30 L0 200 C0 213 160 213 160 200 L160 30 C160 12 152 0 128 0 L32 0 C8 0 0 12 0 30 Z"
          class="stroke-neon" stroke="url(#gCyan)" stroke-width="12" filter="url(#glow-soft)"/>

    <!-- barrel inner subtle gradient fill to mimic glow inside -->
    <path d="M6 36 L6 194 C6 200 154 200 154 194 L154 36 C154 22 146 14 128 14 L32 14 C14 14 6 22 6 36 Z"
          fill="rgba(0,246,255,0.02)"/>

    <!-- measurement ticks -->
    <g stroke="#8ffaff" stroke-width="4" stroke-linecap="round" filter="url(#glow-soft)">
      <path d="M24 44 L42 44"/>
      <path d="M24 76 L50 76"/>
      <path d="M24 108 L56 108"/>
      <path d="M24 140 L50 140"/>
      <path d="M24 172 L42 172"/>
    </g>

    <!-- flange / finger grips -->
    <g transform="translate(48,200)">
      <ellipse cx="30" cy="54" rx="48" ry="22" fill="none" stroke="url(#gCyan)" stroke-width="10" filter="url(#glow-soft)"/>
      <rect x="-22" y="34" width="124" height="12" rx="6" fill="none" stroke="url(#gCyan)" stroke-width="10" filter="url(#glow-soft)"/>
    </g>

    <!-- needle base and needle -->
    <path d="M140 -8 L172 -36" stroke="url(#gNeedle)" stroke-width="6" stroke-linecap="round" filter="url(#glow-strong)"/>
    <path d="M172 -36 L205 -75" stroke="#00ffd2" stroke-width="4" stroke-linecap="round" filter="url(#glow-strong)"/>

    <!-- subtle surface highlights -->
    <path d="M18 12 C40 0 120 0 140 12" fill="none" stroke="#67ffff" stroke-opacity="0.6" stroke-width="3" filter="url(#glow-soft)"/>

    <!-- small magenta decals / scratches to harmonize with skateboard -->
    <g stroke="#ff77d9" stroke-width="3" stroke-linecap="round" opacity="0.9" filter="url(#glow-soft)">
      <path d="M18 182 L34 172"/>
      <path d="M120 152 L136 142"/>
    </g>
  </g>

  <!-- faint magenta motion trail connecting deck & syringe (curved) -->
  <path d="M180 1130 C360 980 540 920 720 900"
        fill="none" stroke="#ff2bd6" stroke-width="6" stroke-linecap="round" opacity="0.9" filter="url(#glow-soft)"/>

  <!-- cyan accent trail -->
  <path d="M200 1160 C380 1010 560 960 740 940"
        fill="none" stroke="#12d6ff" stroke-width="4" stroke-linecap="round" opacity="0.6" filter="url(#glow-soft)"/>

  <!-- finishing vignette -->
  <rect x="0" y="0" width="100%" height="100%" fill="url(#v)" opacity="0.65"/>

  <!-- tiny signature / dot (very faint) -->
  <circle cx="980" cy="1500" r="4" fill="#ffffff" opacity="0.02"/>
</svg>
